# Blender 4.1.1
# www.blender.org
mtllib ThreeFacesPyramid.mtl
o Cone
v 0.500000 -0.175883 -0.866025
v 0.500000 -0.175883 0.866025
v -1.000000 -0.175883 0.000000
v 0.000000 0.527649 0.000000
vn 0.8151 0.5793 -0.0000
vn -0.0000 -1.0000 -0.0000
vn -0.4076 0.5793 0.7059
vn -0.4076 0.5793 -0.7059
vt 0.250000 0.490000
vt 0.250000 0.250000
vt 0.457846 0.130000
vt 0.750000 0.490000
vt 0.957846 0.130000
vt 0.542154 0.130000
vt 0.042154 0.130000
s 0
f 1/1/1 4/2/1 2/3/1
f 1/4/2 2/5/2 3/6/2
f 2/3/3 4/2/3 3/7/3
f 3/7/4 4/2/4 1/1/4
